<?xml version="1.0" encoding="UTF-8"?>
<svg width="10px" height="10px" viewBox="0 0 10 10" version="1.1" xmlns="http://www.w3.org/2000/svg" xmlns:xlink="http://www.w3.org/1999/xlink">
    <!-- Generator: Sketch 52.4 (67378) - http://www.bohemiancoding.com/sketch -->
    <title>icon-edit</title>
    <desc>Created with Sketch.</desc>
    <g id="页面" stroke="none" stroke-width="1" fill="none" fill-rule="evenodd">
        <g id="A01-1/2/3/4日程弹窗" transform="translate(-990.000000, -539.000000)" fill-rule="nonzero">
            <g id="3" transform="translate(480.000000, 280.000000)">
                <g id="列表弹窗" transform="translate(40.000000, 90.000000)">
                    <g id="弹窗2-copy" transform="translate(453.000000, 154.000000)">
                        <g id="icon-edit" transform="translate(17.000000, 15.000000)">
                            <g>
                                <path d="M8.18176256,2.9987043 L6.95176381,1.76870555 L3.58219583,5.28067955 L3.56431402,6.56870142 L4.77261911,6.55192633 L8.18176256,2.9987043 Z M8.61455879,2.54761706 L9.17361179,1.96493714 C9.2139889,1.92285359 9.21493155,1.85495474 9.18137361,1.81989576 L8.09057435,0.680305193 C8.0643588,0.652917026 8.02174086,0.653508697 7.98840359,0.688254883 L7.38456004,1.31761831 L8.61455879,2.54761706 Z M3.04594025,4.93684436 L7.5374129,0.255551288 C7.81414711,-0.0328783724 8.2670755,-0.0391664502 8.54207585,0.248134628 L9.63287511,1.38772519 C9.90053307,1.66735545 9.89429685,2.11654843 9.62460248,2.39764073 L5.13312982,7.0789338 C5.07523913,7.13927109 4.99558219,7.17389112 4.91197255,7.17505189 L3.25172198,7.19810142 C3.07575178,7.20054444 2.932471,7.05726366 2.93491402,6.88129346 L2.9589657,5.14885808 C2.96006434,5.06972309 2.99114778,4.99395249 3.04594025,4.93684436 Z" id="合并形状" fill="#D6D9E9"></path>
                                <path d="M9.0625,5.24658203 C9.0625,5.07399305 9.20241102,4.93408203 9.375,4.93408203 C9.54758898,4.93408203 9.6875,5.07399305 9.6875,5.24658203 L9.6875,8.95833333 C9.6875,9.36104096 9.36104096,9.6875 8.95833333,9.6875 L1.04166667,9.6875 C0.638959037,9.6875 0.3125,9.36104096 0.3125,8.95833333 L0.3125,1.04166667 C0.3125,0.638959037 0.638959037,0.3125 1.04166667,0.3125 L4.80662028,0.3125 C4.97920926,0.3125 5.11912028,0.452411016 5.11912028,0.625 C5.11912028,0.797588984 4.97920926,0.9375 4.80662028,0.9375 L1.04166667,0.9375 C0.984137005,0.9375 0.9375,0.984137005 0.9375,1.04166667 L0.9375,8.95833333 C0.9375,9.01586299 0.984137005,9.0625 1.04166667,9.0625 L8.95833333,9.0625 C9.01586299,9.0625 9.0625,9.01586299 9.0625,8.95833333 L9.0625,5.24658203 Z" id="Rectangle-21" fill="#AEB3D3"></path>
                            </g>
                        </g>
                    </g>
                </g>
            </g>
        </g>
    </g>
</svg>