<?xml version="1.0" encoding="UTF-8"?>
<svg width="10px" height="10px" viewBox="0 0 10 10" version="1.1" xmlns="http://www.w3.org/2000/svg" xmlns:xlink="http://www.w3.org/1999/xlink">
    <!-- Generator: Sketch 52.4 (67378) - http://www.bohemiancoding.com/sketch -->
    <title>icon-time</title>
    <desc>Created with Sketch.</desc>
    <g id="页面" stroke="none" stroke-width="1" fill="none" fill-rule="evenodd">
        <g id="A01-1/2/3/4日程弹窗" transform="translate(-990.000000, -599.000000)" fill-rule="nonzero">
            <g id="3" transform="translate(480.000000, 280.000000)">
                <g id="列表弹窗" transform="translate(40.000000, 90.000000)">
                    <g id="弹窗2-copy" transform="translate(453.000000, 154.000000)">
                        <g id="icon-time" transform="translate(17.000000, 75.000000)">
                            <path d="M5,10 C2.23857625,10 0,7.76142375 0,5 C0,2.23857625 2.23857625,0 5,0 C7.76142375,0 10,2.23857625 10,5 C10,7.76142375 7.76142375,10 5,10 Z M5,9.33333333 C7.39323392,9.33333333 9.33333333,7.39323392 9.33333333,5 C9.33333333,2.60676608 7.39323392,0.666666667 5,0.666666667 C2.60676608,0.666666667 0.666666667,2.60676608 0.666666667,5 C0.666666667,7.39323392 2.60676608,9.33333333 5,9.33333333 Z" id="Oval-3" fill="#AEB3D3"></path>
                            <path d="M7.22727273,4.95452448 C7.37789584,4.95452448 7.5,5.07663334 7.5,5.22726224 C7.5,5.37789115 7.37789584,5.5 7.22727273,5.5 L4.77272727,5.5 C4.62210416,5.5 4.5,5.37789115 4.5,5.22726224 L4.5,2.77273776 C4.5,2.62210885 4.62210416,2.5 4.77272727,2.5 C4.92335039,2.5 5.04545455,2.62210885 5.04545455,2.77273776 L5.04545455,4.95452448 L7.22727273,4.95452448 Z" id="Path-3" fill="#D6D9E9"></path>
                        </g>
                    </g>
                </g>
            </g>
        </g>
    </g>
</svg>